# Tiled2Unity generated file. Do not modify by hand.
# Wavefront file for 'Checkpoint_Light_mesh_0001.obj'

# Vertices (Count = 36)
v -1 -2 0
v -2 -2 0
v -2 -1 0
v -1 -1 0
v -2 -2 0
v -3 -2 0
v -3 -1 0
v -2 -1 0
v -3 -2 0
v -4 -2 0
v -4 -1 0
v -3 -1 0
v -1 -3 0
v -2 -3 0
v -2 -2 0
v -1 -2 0
v -2 -3 0
v -3 -3 0
v -3 -2 0
v -2 -2 0
v -3 -3 0
v -4 -3 0
v -4 -2 0
v -3 -2 0
v -1 -4 0
v -2 -4 0
v -2 -3 0
v -1 -3 0
v -2 -4 0
v -3 -4 0
v -3 -3 0
v -2 -3 0
v -3 -4 0
v -4 -4 0
v -4 -3 0
v -3 -3 0

# Texture cooridinates (Count = 8)
vt 0.28125 0.9
vt 0.296875 0.9
vt 0.296875 0.925
vt 0.28125 0.925
vt 0.3125 0.9
vt 0.3125 0.925
vt 0.265625 0.9
vt 0.265625 0.925

# Normal
vn 0 0 -1

# Mesh description
g Checkpoint_Light_mesh_0001

# Faces
f 1/1/1 2/2/1 3/3/1 4/4/1
f 5/1/1 6/2/1 7/3/1 8/4/1
f 9/2/1 10/5/1 11/6/1 12/3/1
f 13/2/1 14/3/1 15/4/1 16/1/1
f 17/7/1 18/1/1 19/4/1 20/8/1
f 21/2/1 22/3/1 23/4/1 24/1/1
f 25/5/1 26/6/1 27/3/1 28/2/1
f 29/1/1 30/2/1 31/3/1 32/4/1
f 33/5/1 34/6/1 35/3/1 36/2/1

