# Tiled2Unity generated file. Do not modify by hand.
# Wavefront file for 'WakeIntroduction_mesh_0005.obj'

# Vertices (Count = 380)
v -3 -41 0
v -4 -41 0
v -4 -40 0
v -3 -40 0
v -4 -41 0
v -5 -41 0
v -5 -40 0
v -4 -40 0
v -5 -41 0
v -6 -41 0
v -6 -40 0
v -5 -40 0
v -6 -41 0
v -7 -41 0
v -7 -40 0
v -6 -40 0
v -7 -41 0
v -8 -41 0
v -8 -40 0
v -7 -40 0
v -8 -41 0
v -9 -41 0
v -9 -40 0
v -8 -40 0
v -9 -41 0
v -10 -41 0
v -10 -40 0
v -9 -40 0
v -10 -41 0
v -11 -41 0
v -11 -40 0
v -10 -40 0
v -11 -41 0
v -12 -41 0
v -12 -40 0
v -11 -40 0
v -12 -41 0
v -13 -41 0
v -13 -40 0
v -12 -40 0
v -13 -41 0
v -14 -41 0
v -14 -40 0
v -13 -40 0
v -14 -41 0
v -15 -41 0
v -15 -40 0
v -14 -40 0
v -15 -41 0
v -16 -41 0
v -16 -40 0
v -15 -40 0
v -16 -41 0
v -17 -41 0
v -17 -40 0
v -16 -40 0
v -17 -41 0
v -18 -41 0
v -18 -40 0
v -17 -40 0
v -18 -41 0
v -19 -41 0
v -19 -40 0
v -18 -40 0
v -19 -41 0
v -20 -41 0
v -20 -40 0
v -19 -40 0
v -20 -41 0
v -21 -41 0
v -21 -40 0
v -20 -40 0
v -21 -41 0
v -22 -41 0
v -22 -40 0
v -21 -40 0
v -22 -41 0
v -23 -41 0
v -23 -40 0
v -22 -40 0
v -23 -41 0
v -24 -41 0
v -24 -40 0
v -23 -40 0
v -24 -41 0
v -25 -41 0
v -25 -40 0
v -24 -40 0
v -3 -42 0
v -4 -42 0
v -4 -41 0
v -3 -41 0
v -4 -42 0
v -5 -42 0
v -5 -41 0
v -4 -41 0
v -5 -42 0
v -6 -42 0
v -6 -41 0
v -5 -41 0
v -6 -42 0
v -7 -42 0
v -7 -41 0
v -6 -41 0
v -7 -42 0
v -8 -42 0
v -8 -41 0
v -7 -41 0
v -8 -42 0
v -9 -42 0
v -9 -41 0
v -8 -41 0
v -9 -42 0
v -10 -42 0
v -10 -41 0
v -9 -41 0
v -10 -42 0
v -11 -42 0
v -11 -41 0
v -10 -41 0
v -11 -42 0
v -12 -42 0
v -12 -41 0
v -11 -41 0
v -12 -42 0
v -13 -42 0
v -13 -41 0
v -12 -41 0
v -13 -42 0
v -14 -42 0
v -14 -41 0
v -13 -41 0
v -14 -42 0
v -15 -42 0
v -15 -41 0
v -14 -41 0
v -15 -42 0
v -16 -42 0
v -16 -41 0
v -15 -41 0
v -16 -42 0
v -17 -42 0
v -17 -41 0
v -16 -41 0
v -17 -42 0
v -18 -42 0
v -18 -41 0
v -17 -41 0
v -18 -42 0
v -19 -42 0
v -19 -41 0
v -18 -41 0
v -19 -42 0
v -20 -42 0
v -20 -41 0
v -19 -41 0
v -20 -42 0
v -21 -42 0
v -21 -41 0
v -20 -41 0
v -21 -42 0
v -22 -42 0
v -22 -41 0
v -21 -41 0
v -22 -42 0
v -23 -42 0
v -23 -41 0
v -22 -41 0
v -23 -42 0
v -24 -42 0
v -24 -41 0
v -23 -41 0
v -24 -42 0
v -25 -42 0
v -25 -41 0
v -24 -41 0
v -24 -43 0
v -25 -43 0
v -25 -42 0
v -24 -42 0
v -24 -44 0
v -25 -44 0
v -25 -43 0
v -24 -43 0
v -24 -45 0
v -25 -45 0
v -25 -44 0
v -24 -44 0
v -24 -46 0
v -25 -46 0
v -25 -45 0
v -24 -45 0
v -24 -47 0
v -25 -47 0
v -25 -46 0
v -24 -46 0
v -24 -48 0
v -25 -48 0
v -25 -47 0
v -24 -47 0
v -24 -49 0
v -25 -49 0
v -25 -48 0
v -24 -48 0
v -24 -50 0
v -25 -50 0
v -25 -49 0
v -24 -49 0
v -3 -51 0
v -4 -51 0
v -4 -50 0
v -3 -50 0
v -4 -51 0
v -5 -51 0
v -5 -50 0
v -4 -50 0
v -5 -51 0
v -6 -51 0
v -6 -50 0
v -5 -50 0
v -6 -51 0
v -7 -51 0
v -7 -50 0
v -6 -50 0
v -7 -51 0
v -8 -51 0
v -8 -50 0
v -7 -50 0
v -8 -51 0
v -9 -51 0
v -9 -50 0
v -8 -50 0
v -9 -51 0
v -10 -51 0
v -10 -50 0
v -9 -50 0
v -10 -51 0
v -11 -51 0
v -11 -50 0
v -10 -50 0
v -11 -51 0
v -12 -51 0
v -12 -50 0
v -11 -50 0
v -12 -51 0
v -13 -51 0
v -13 -50 0
v -12 -50 0
v -13 -51 0
v -14 -51 0
v -14 -50 0
v -13 -50 0
v -14 -51 0
v -15 -51 0
v -15 -50 0
v -14 -50 0
v -15 -51 0
v -16 -51 0
v -16 -50 0
v -15 -50 0
v -16 -51 0
v -17 -51 0
v -17 -50 0
v -16 -50 0
v -17 -51 0
v -18 -51 0
v -18 -50 0
v -17 -50 0
v -18 -51 0
v -19 -51 0
v -19 -50 0
v -18 -50 0
v -19 -51 0
v -20 -51 0
v -20 -50 0
v -19 -50 0
v -20 -51 0
v -21 -51 0
v -21 -50 0
v -20 -50 0
v -21 -51 0
v -22 -51 0
v -22 -50 0
v -21 -50 0
v -22 -51 0
v -23 -51 0
v -23 -50 0
v -22 -50 0
v -23 -51 0
v -24 -51 0
v -24 -50 0
v -23 -50 0
v -24 -51 0
v -25 -51 0
v -25 -50 0
v -24 -50 0
v -12 -85 0
v -13 -85 0
v -13 -84 0
v -12 -84 0
v -13 -85 0
v -14 -85 0
v -14 -84 0
v -13 -84 0
v -14 -85 0
v -15 -85 0
v -15 -84 0
v -14 -84 0
v -15 -85 0
v -16 -85 0
v -16 -84 0
v -15 -84 0
v -16 -85 0
v -17 -85 0
v -17 -84 0
v -16 -84 0
v -17 -85 0
v -18 -85 0
v -18 -84 0
v -17 -84 0
v -18 -85 0
v -19 -85 0
v -19 -84 0
v -18 -84 0
v -12 -86 0
v -13 -86 0
v -13 -85 0
v -12 -85 0
v -13 -86 0
v -14 -86 0
v -14 -85 0
v -13 -85 0
v -14 -86 0
v -15 -86 0
v -15 -85 0
v -14 -85 0
v -15 -86 0
v -16 -86 0
v -16 -85 0
v -15 -85 0
v -16 -86 0
v -17 -86 0
v -17 -85 0
v -16 -85 0
v -17 -86 0
v -18 -86 0
v -18 -85 0
v -17 -85 0
v -18 -86 0
v -19 -86 0
v -19 -85 0
v -18 -85 0
v -12 -87 0
v -13 -87 0
v -13 -86 0
v -12 -86 0
v -13 -87 0
v -14 -87 0
v -14 -86 0
v -13 -86 0
v -14 -87 0
v -15 -87 0
v -15 -86 0
v -14 -86 0
v -15 -87 0
v -16 -87 0
v -16 -86 0
v -15 -86 0
v -16 -87 0
v -17 -87 0
v -17 -86 0
v -16 -86 0
v -17 -87 0
v -18 -87 0
v -18 -86 0
v -17 -86 0
v -18 -87 0
v -19 -87 0
v -19 -86 0
v -18 -86 0

# Texture cooridinates (Count = 52)
vt 0.671875 0.725
vt 0.6875 0.725
vt 0.6875 0.75
vt 0.671875 0.75
vt 0.703125 0.725
vt 0.703125 0.75
vt 0.71875 0.725
vt 0.734375 0.725
vt 0.734375 0.75
vt 0.71875 0.75
vt 0.71875 0.7
vt 0.734375 0.7
vt 0.71875 0.675
vt 0.734375 0.675
vt 0.71875 0.65
vt 0.734375 0.65
vt 0.671875 0.625
vt 0.6875 0.625
vt 0.6875 0.65
vt 0.671875 0.65
vt 0.5 0.65
vt 0.5 0.675
vt 0.484375 0.675
vt 0.484375 0.65
vt 0.5 0.7
vt 0.484375 0.7
vt 0.5 0.725
vt 0.484375 0.725
vt 0.5 0.75
vt 0.484375 0.75
vt 0.296875 0.9
vt 0.3125 0.9
vt 0.3125 0.925
vt 0.296875 0.925
vt 0.265625 0.9
vt 0.28125 0.9
vt 0.28125 0.925
vt 0.265625 0.925
vt 0.296875 0.95
vt 0.28125 0.95
vt 0.296875 0.975
vt 0.28125 0.975
vt 0.3125 0.95
vt 0.3125 0.975
vt 0.328125 0.95
vt 0.328125 0.975
vt 0.34375 0.95
vt 0.34375 0.975
vt 0.359375 0.95
vt 0.359375 0.975
vt 0.375 0.95
vt 0.375 0.975

# Normal
vn 0 0 -1

# Mesh description
g WakeIntroduction_mesh_0005

# Faces
f 1/1/1 2/2/1 3/3/1 4/4/1
f 5/2/1 6/5/1 7/6/1 8/3/1
f 9/1/1 10/2/1 11/3/1 12/4/1
f 13/1/1 14/2/1 15/3/1 16/4/1
f 17/1/1 18/2/1 19/3/1 20/4/1
f 21/1/1 22/2/1 23/3/1 24/4/1
f 25/1/1 26/2/1 27/3/1 28/4/1
f 29/1/1 30/2/1 31/3/1 32/4/1
f 33/1/1 34/2/1 35/3/1 36/4/1
f 37/1/1 38/2/1 39/3/1 40/4/1
f 41/1/1 42/2/1 43/3/1 44/4/1
f 45/1/1 46/2/1 47/3/1 48/4/1
f 49/1/1 50/2/1 51/3/1 52/4/1
f 53/1/1 54/2/1 55/3/1 56/4/1
f 57/1/1 58/2/1 59/3/1 60/4/1
f 61/1/1 62/2/1 63/3/1 64/4/1
f 65/1/1 66/2/1 67/3/1 68/4/1
f 69/1/1 70/2/1 71/3/1 72/4/1
f 73/1/1 74/2/1 75/3/1 76/4/1
f 77/1/1 78/2/1 79/3/1 80/4/1
f 81/1/1 82/2/1 83/3/1 84/4/1
f 85/2/1 86/5/1 87/6/1 88/3/1
f 89/1/1 90/2/1 91/3/1 92/4/1
f 93/1/1 94/2/1 95/3/1 96/4/1
f 97/1/1 98/2/1 99/3/1 100/4/1
f 101/1/1 102/2/1 103/3/1 104/4/1
f 105/2/1 106/5/1 107/6/1 108/3/1
f 109/1/1 110/2/1 111/3/1 112/4/1
f 113/2/1 114/5/1 115/6/1 116/3/1
f 117/2/1 118/5/1 119/6/1 120/3/1
f 121/2/1 122/5/1 123/6/1 124/3/1
f 125/2/1 126/5/1 127/6/1 128/3/1
f 129/2/1 130/5/1 131/6/1 132/3/1
f 133/2/1 134/5/1 135/6/1 136/3/1
f 137/2/1 138/5/1 139/6/1 140/3/1
f 141/2/1 142/5/1 143/6/1 144/3/1
f 145/2/1 146/5/1 147/6/1 148/3/1
f 149/2/1 150/5/1 151/6/1 152/3/1
f 153/2/1 154/5/1 155/6/1 156/3/1
f 157/2/1 158/5/1 159/6/1 160/3/1
f 161/2/1 162/5/1 163/6/1 164/3/1
f 165/2/1 166/5/1 167/6/1 168/3/1
f 169/1/1 170/2/1 171/3/1 172/4/1
f 173/2/1 174/5/1 175/6/1 176/3/1
f 177/7/1 178/8/1 179/9/1 180/10/1
f 181/11/1 182/12/1 183/8/1 184/7/1
f 185/13/1 186/14/1 187/12/1 188/11/1
f 189/15/1 190/16/1 191/14/1 192/13/1
f 193/7/1 194/8/1 195/9/1 196/10/1
f 197/11/1 198/12/1 199/8/1 200/7/1
f 201/13/1 202/14/1 203/12/1 204/11/1
f 205/15/1 206/16/1 207/14/1 208/13/1
f 209/1/1 210/2/1 211/3/1 212/4/1
f 213/1/1 214/2/1 215/3/1 216/4/1
f 217/1/1 218/2/1 219/3/1 220/4/1
f 221/1/1 222/2/1 223/3/1 224/4/1
f 225/1/1 226/2/1 227/3/1 228/4/1
f 229/1/1 230/2/1 231/3/1 232/4/1
f 233/1/1 234/2/1 235/3/1 236/4/1
f 237/1/1 238/2/1 239/3/1 240/4/1
f 241/1/1 242/2/1 243/3/1 244/4/1
f 245/1/1 246/2/1 247/3/1 248/4/1
f 249/1/1 250/2/1 251/3/1 252/4/1
f 253/1/1 254/2/1 255/3/1 256/4/1
f 257/1/1 258/2/1 259/3/1 260/4/1
f 261/1/1 262/2/1 263/3/1 264/4/1
f 265/1/1 266/2/1 267/3/1 268/4/1
f 269/1/1 270/2/1 271/3/1 272/4/1
f 273/1/1 274/2/1 275/3/1 276/4/1
f 277/1/1 278/2/1 279/3/1 280/4/1
f 281/1/1 282/2/1 283/3/1 284/4/1
f 285/1/1 286/2/1 287/3/1 288/4/1
f 289/1/1 290/2/1 291/3/1 292/4/1
f 293/2/1 294/5/1 295/6/1 296/3/1
f 297/17/1 298/18/1 299/19/1 300/20/1
f 301/21/1 302/22/1 303/23/1 304/24/1
f 305/21/1 306/22/1 307/23/1 308/24/1
f 309/22/1 310/25/1 311/26/1 312/23/1
f 313/25/1 314/27/1 315/28/1 316/26/1
f 317/27/1 318/29/1 319/30/1 320/28/1
f 321/17/1 322/18/1 323/19/1 324/20/1
f 325/31/1 326/32/1 327/33/1 328/34/1
f 329/35/1 330/36/1 331/37/1 332/38/1
f 333/36/1 334/31/1 335/34/1 336/37/1
f 337/31/1 338/32/1 339/33/1 340/34/1
f 341/35/1 342/36/1 343/37/1 344/38/1
f 345/36/1 346/31/1 347/34/1 348/37/1
f 349/31/1 350/32/1 351/33/1 352/34/1
f 353/37/1 354/34/1 355/39/1 356/40/1
f 357/40/1 358/39/1 359/41/1 360/42/1
f 361/39/1 362/43/1 363/44/1 364/41/1
f 365/43/1 366/45/1 367/46/1 368/44/1
f 369/45/1 370/47/1 371/48/1 372/46/1
f 373/47/1 374/49/1 375/50/1 376/48/1
f 377/49/1 378/51/1 379/52/1 380/50/1

