# Tiled2Unity generated file. Do not modify by hand.
# Wavefront file for 'Checkpoints_mesh_0001.obj'

# Vertices (Count = 412)
v -2 -3 0
v -3 -3 0
v -3 -2 0
v -2 -2 0
v -3 -3 0
v -4 -3 0
v -4 -2 0
v -3 -2 0
v -4 -3 0
v -5 -3 0
v -5 -2 0
v -4 -2 0
v -5 -3 0
v -6 -3 0
v -6 -2 0
v -5 -2 0
v -6 -3 0
v -7 -3 0
v -7 -2 0
v -6 -2 0
v -7 -3 0
v -8 -3 0
v -8 -2 0
v -7 -2 0
v -8 -3 0
v -9 -3 0
v -9 -2 0
v -8 -2 0
v -9 -3 0
v -10 -3 0
v -10 -2 0
v -9 -2 0
v -10 -3 0
v -11 -3 0
v -11 -2 0
v -10 -2 0
v -11 -3 0
v -12 -3 0
v -12 -2 0
v -11 -2 0
v -12 -3 0
v -13 -3 0
v -13 -2 0
v -12 -2 0
v -2 -4 0
v -3 -4 0
v -3 -3 0
v -2 -3 0
v -3 -4 0
v -4 -4 0
v -4 -3 0
v -3 -3 0
v -4 -4 0
v -5 -4 0
v -5 -3 0
v -4 -3 0
v -5 -4 0
v -6 -4 0
v -6 -3 0
v -5 -3 0
v -6 -4 0
v -7 -4 0
v -7 -3 0
v -6 -3 0
v -7 -4 0
v -8 -4 0
v -8 -3 0
v -7 -3 0
v -8 -4 0
v -9 -4 0
v -9 -3 0
v -8 -3 0
v -9 -4 0
v -10 -4 0
v -10 -3 0
v -9 -3 0
v -10 -4 0
v -11 -4 0
v -11 -3 0
v -10 -3 0
v -11 -4 0
v -12 -4 0
v -12 -3 0
v -11 -3 0
v -12 -4 0
v -13 -4 0
v -13 -3 0
v -12 -3 0
v -2 -5 0
v -3 -5 0
v -3 -4 0
v -2 -4 0
v -3 -5 0
v -4 -5 0
v -4 -4 0
v -3 -4 0
v -4 -5 0
v -5 -5 0
v -5 -4 0
v -4 -4 0
v -5 -5 0
v -6 -5 0
v -6 -4 0
v -5 -4 0
v -6 -5 0
v -7 -5 0
v -7 -4 0
v -6 -4 0
v -7 -5 0
v -8 -5 0
v -8 -4 0
v -7 -4 0
v -8 -5 0
v -9 -5 0
v -9 -4 0
v -8 -4 0
v -9 -5 0
v -10 -5 0
v -10 -4 0
v -9 -4 0
v -10 -5 0
v -11 -5 0
v -11 -4 0
v -10 -4 0
v -11 -5 0
v -12 -5 0
v -12 -4 0
v -11 -4 0
v -12 -5 0
v -13 -5 0
v -13 -4 0
v -12 -4 0
v -2 -6 0
v -3 -6 0
v -3 -5 0
v -2 -5 0
v -3 -6 0
v -4 -6 0
v -4 -5 0
v -3 -5 0
v -4 -6 0
v -5 -6 0
v -5 -5 0
v -4 -5 0
v -5 -6 0
v -6 -6 0
v -6 -5 0
v -5 -5 0
v -6 -6 0
v -7 -6 0
v -7 -5 0
v -6 -5 0
v -7 -6 0
v -8 -6 0
v -8 -5 0
v -7 -5 0
v -8 -6 0
v -9 -6 0
v -9 -5 0
v -8 -5 0
v -9 -6 0
v -10 -6 0
v -10 -5 0
v -9 -5 0
v -10 -6 0
v -11 -6 0
v -11 -5 0
v -10 -5 0
v -11 -6 0
v -12 -6 0
v -12 -5 0
v -11 -5 0
v -12 -6 0
v -13 -6 0
v -13 -5 0
v -12 -5 0
v -2 -7 0
v -3 -7 0
v -3 -6 0
v -2 -6 0
v -3 -7 0
v -4 -7 0
v -4 -6 0
v -3 -6 0
v -4 -7 0
v -5 -7 0
v -5 -6 0
v -4 -6 0
v -5 -7 0
v -6 -7 0
v -6 -6 0
v -5 -6 0
v -6 -7 0
v -7 -7 0
v -7 -6 0
v -6 -6 0
v -7 -7 0
v -8 -7 0
v -8 -6 0
v -7 -6 0
v -8 -7 0
v -9 -7 0
v -9 -6 0
v -8 -6 0
v -9 -7 0
v -10 -7 0
v -10 -6 0
v -9 -6 0
v -10 -7 0
v -11 -7 0
v -11 -6 0
v -10 -6 0
v -11 -7 0
v -12 -7 0
v -12 -6 0
v -11 -6 0
v -12 -7 0
v -13 -7 0
v -13 -6 0
v -12 -6 0
v -2 -8 0
v -3 -8 0
v -3 -7 0
v -2 -7 0
v -3 -8 0
v -4 -8 0
v -4 -7 0
v -3 -7 0
v -4 -8 0
v -5 -8 0
v -5 -7 0
v -4 -7 0
v -5 -8 0
v -6 -8 0
v -6 -7 0
v -5 -7 0
v -6 -8 0
v -7 -8 0
v -7 -7 0
v -6 -7 0
v -7 -8 0
v -8 -8 0
v -8 -7 0
v -7 -7 0
v -8 -8 0
v -9 -8 0
v -9 -7 0
v -8 -7 0
v -9 -8 0
v -10 -8 0
v -10 -7 0
v -9 -7 0
v -10 -8 0
v -11 -8 0
v -11 -7 0
v -10 -7 0
v -11 -8 0
v -12 -8 0
v -12 -7 0
v -11 -7 0
v -12 -8 0
v -13 -8 0
v -13 -7 0
v -12 -7 0
v -2 -9 0
v -3 -9 0
v -3 -8 0
v -2 -8 0
v -3 -9 0
v -4 -9 0
v -4 -8 0
v -3 -8 0
v -4 -9 0
v -5 -9 0
v -5 -8 0
v -4 -8 0
v -5 -9 0
v -6 -9 0
v -6 -8 0
v -5 -8 0
v -6 -9 0
v -7 -9 0
v -7 -8 0
v -6 -8 0
v -7 -9 0
v -8 -9 0
v -8 -8 0
v -7 -8 0
v -8 -9 0
v -9 -9 0
v -9 -8 0
v -8 -8 0
v -9 -9 0
v -10 -9 0
v -10 -8 0
v -9 -8 0
v -10 -9 0
v -11 -9 0
v -11 -8 0
v -10 -8 0
v -11 -9 0
v -12 -9 0
v -12 -8 0
v -11 -8 0
v -12 -9 0
v -13 -9 0
v -13 -8 0
v -12 -8 0
v -2 -10 0
v -3 -10 0
v -3 -9 0
v -2 -9 0
v -3 -10 0
v -4 -10 0
v -4 -9 0
v -3 -9 0
v -4 -10 0
v -5 -10 0
v -5 -9 0
v -4 -9 0
v -5 -10 0
v -6 -10 0
v -6 -9 0
v -5 -9 0
v -6 -10 0
v -7 -10 0
v -7 -9 0
v -6 -9 0
v -7 -10 0
v -8 -10 0
v -8 -9 0
v -7 -9 0
v -8 -10 0
v -9 -10 0
v -9 -9 0
v -8 -9 0
v -9 -10 0
v -10 -10 0
v -10 -9 0
v -9 -9 0
v -10 -10 0
v -11 -10 0
v -11 -9 0
v -10 -9 0
v -11 -10 0
v -12 -10 0
v -12 -9 0
v -11 -9 0
v -12 -10 0
v -13 -10 0
v -13 -9 0
v -12 -9 0
v -6 -11 0
v -7 -11 0
v -7 -10 0
v -6 -10 0
v -7 -11 0
v -8 -11 0
v -8 -10 0
v -7 -10 0
v -8 -11 0
v -9 -11 0
v -9 -10 0
v -8 -10 0
v -6 -12 0
v -7 -12 0
v -7 -11 0
v -6 -11 0
v -7 -12 0
v -8 -12 0
v -8 -11 0
v -7 -11 0
v -8 -12 0
v -9 -12 0
v -9 -11 0
v -8 -11 0
v -6 -13 0
v -7 -13 0
v -7 -12 0
v -6 -12 0
v -7 -13 0
v -8 -13 0
v -8 -12 0
v -7 -12 0
v -8 -13 0
v -9 -13 0
v -9 -12 0
v -8 -12 0
v -6 -14 0
v -7 -14 0
v -7 -13 0
v -6 -13 0
v -7 -14 0
v -8 -14 0
v -8 -13 0
v -7 -13 0
v -8 -14 0
v -9 -14 0
v -9 -13 0
v -8 -13 0
v -6 -15 0
v -7 -15 0
v -7 -14 0
v -6 -14 0
v -7 -15 0
v -8 -15 0
v -8 -14 0
v -7 -14 0
v -8 -15 0
v -9 -15 0
v -9 -14 0
v -8 -14 0

# Texture cooridinates (Count = 68)
vt 0.078125 0.475
vt 0.09375 0.475
vt 0.09375 0.5
vt 0.078125 0.5
vt 0.109375 0.475
vt 0.109375 0.5
vt 0.125 0.475
vt 0.125 0.5
vt 0.140625 0.475
vt 0.140625 0.5
vt 0.15625 0.475
vt 0.15625 0.5
vt 0.125 0.425
vt 0.140625 0.425
vt 0.140625 0.45
vt 0.125 0.45
vt 0.078125 0.45
vt 0.09375 0.45
vt 0.640625 0.4
vt 0.65625 0.4
vt 0.65625 0.425
vt 0.640625 0.425
vt 0.09375 0.55
vt 0.109375 0.55
vt 0.109375 0.575
vt 0.09375 0.575
vt 0.125 0.55
vt 0.125 0.575
vt 0.078125 0.55
vt 0.078125 0.575
vt 0.140625 0.55
vt 0.140625 0.575
vt 0.15625 0.55
vt 0.15625 0.575
vt 0.171875 0.55
vt 0.171875 0.575
vt 0.15625 0.45
vt 0.171875 0.45
vt 0.171875 0.475
vt 0.078125 0.425
vt 0.09375 0.425
vt 0.078125 0.525
vt 0.09375 0.525
vt 0.109375 0.525
vt 0.125 0.525
vt 0.140625 0.525
vt 0.796875 0.45
vt 0.8125 0.45
vt 0.8125 0.475
vt 0.796875 0.475
vt 0.15625 0.525
vt 0.171875 0.525
vt 0.15625 0.425
vt 0.171875 0.425
vt 0.171875 0.5
vt 0.15625 0.4
vt 0.171875 0.4
vt 0.078125 0.4
vt 0.09375 0.4
vt 0.078125 0.375
vt 0.09375 0.375
vt 0.109375 0.4
vt 0.125 0.4
vt 0.109375 0.425
vt 0.109375 0.375
vt 0.125 0.375
vt 0.15625 0.375
vt 0.171875 0.375

# Normal
vn 0 0 -1

# Mesh description
g Checkpoints_mesh_0001

# Faces
f 1/1/1 2/2/1 3/3/1 4/4/1
f 5/2/1 6/5/1 7/6/1 8/3/1
f 9/5/1 10/7/1 11/8/1 12/6/1
f 13/7/1 14/9/1 15/10/1 16/8/1
f 17/9/1 18/11/1 19/12/1 20/10/1
f 21/13/1 22/14/1 23/15/1 24/16/1
f 25/11/1 26/9/1 27/10/1 28/12/1
f 29/9/1 30/7/1 31/8/1 32/10/1
f 33/7/1 34/5/1 35/6/1 36/8/1
f 37/5/1 38/2/1 39/3/1 40/6/1
f 41/2/1 42/1/1 43/4/1 44/3/1
f 45/17/1 46/18/1 47/2/1 48/1/1
f 49/19/1 50/20/1 51/21/1 52/22/1
f 53/23/1 54/24/1 55/25/1 56/26/1
f 57/24/1 58/27/1 59/28/1 60/25/1
f 61/29/1 62/23/1 63/26/1 64/30/1
f 65/23/1 66/24/1 67/25/1 68/26/1
f 69/24/1 70/27/1 71/28/1 72/25/1
f 73/27/1 74/31/1 75/32/1 76/28/1
f 77/31/1 78/33/1 79/34/1 80/32/1
f 81/33/1 82/35/1 83/36/1 84/34/1
f 85/37/1 86/38/1 87/39/1 88/11/1
f 89/40/1 90/41/1 91/18/1 92/17/1
f 93/42/1 94/43/1 95/23/1 96/29/1
f 97/43/1 98/44/1 99/24/1 100/23/1
f 101/44/1 102/45/1 103/27/1 104/24/1
f 105/45/1 106/46/1 107/31/1 108/27/1
f 109/43/1 110/44/1 111/24/1 112/23/1
f 113/47/1 114/48/1 115/49/1 116/50/1
f 117/45/1 118/46/1 119/31/1 120/27/1
f 121/46/1 122/51/1 123/33/1 124/31/1
f 125/51/1 126/52/1 127/35/1 128/33/1
f 129/53/1 130/54/1 131/38/1 132/37/1
f 133/17/1 134/18/1 135/2/1 136/1/1
f 137/4/1 138/3/1 139/43/1 140/42/1
f 141/43/1 142/44/1 143/24/1 144/23/1
f 145/44/1 146/45/1 147/27/1 148/24/1
f 149/45/1 150/46/1 151/31/1 152/27/1
f 153/3/1 154/6/1 155/44/1 156/43/1
f 157/6/1 158/8/1 159/45/1 160/44/1
f 161/8/1 162/10/1 163/46/1 164/45/1
f 165/19/1 166/20/1 167/21/1 168/22/1
f 169/12/1 170/55/1 171/52/1 172/51/1
f 173/56/1 174/57/1 175/54/1 176/53/1
f 177/40/1 178/41/1 179/18/1 180/17/1
f 181/29/1 182/23/1 183/26/1 184/30/1
f 185/43/1 186/44/1 187/24/1 188/23/1
f 189/44/1 190/45/1 191/27/1 192/24/1
f 193/45/1 194/46/1 195/31/1 196/27/1
f 197/31/1 198/33/1 199/34/1 200/32/1
f 201/33/1 202/35/1 203/36/1 204/34/1
f 205/27/1 206/31/1 207/32/1 208/28/1
f 209/31/1 210/33/1 211/34/1 212/32/1
f 213/33/1 214/35/1 215/36/1 216/34/1
f 217/37/1 218/38/1 219/39/1 220/11/1
f 221/58/1 222/59/1 223/41/1 224/40/1
f 225/47/1 226/48/1 227/49/1 228/50/1
f 229/43/1 230/44/1 231/24/1 232/23/1
f 233/44/1 234/45/1 235/27/1 236/24/1
f 237/45/1 238/46/1 239/31/1 240/27/1
f 241/46/1 242/51/1 243/33/1 244/31/1
f 245/19/1 246/20/1 247/21/1 248/22/1
f 249/45/1 250/46/1 251/31/1 252/27/1
f 253/46/1 254/51/1 255/33/1 256/31/1
f 257/51/1 258/52/1 259/35/1 260/33/1
f 261/37/1 262/38/1 263/39/1 264/11/1
f 265/60/1 266/61/1 267/59/1 268/58/1
f 269/4/1 270/3/1 271/43/1 272/42/1
f 273/19/1 274/20/1 275/21/1 276/22/1
f 277/6/1 278/8/1 279/45/1 280/44/1
f 281/8/1 282/10/1 283/46/1 284/45/1
f 285/10/1 286/12/1 287/51/1 288/46/1
f 289/12/1 290/55/1 291/52/1 292/51/1
f 293/8/1 294/10/1 295/46/1 296/45/1
f 297/10/1 298/12/1 299/51/1 300/46/1
f 301/47/1 302/48/1 303/49/1 304/50/1
f 305/53/1 306/54/1 307/38/1 308/37/1
f 309/1/1 310/4/1 311/3/1 312/2/1
f 313/12/1 314/10/1 315/9/1 316/11/1
f 317/10/1 318/8/1 319/7/1 320/9/1
f 321/8/1 322/6/1 323/5/1 324/7/1
f 325/6/1 326/3/1 327/2/1 328/5/1
f 329/6/1 330/3/1 331/2/1 332/5/1
f 333/12/1 334/10/1 335/9/1 336/11/1
f 337/10/1 338/8/1 339/7/1 340/9/1
f 341/8/1 342/6/1 343/5/1 344/7/1
f 345/6/1 346/3/1 347/2/1 348/5/1
f 349/3/1 350/4/1 351/1/1 352/2/1
f 353/53/1 354/54/1 355/38/1 356/37/1
f 357/62/1 358/63/1 359/13/1 360/64/1
f 361/53/1 362/54/1 363/38/1 364/37/1
f 365/56/1 366/57/1 367/54/1 368/53/1
f 369/65/1 370/66/1 371/63/1 372/62/1
f 373/56/1 374/57/1 375/54/1 376/53/1
f 377/53/1 378/54/1 379/38/1 380/37/1
f 381/65/1 382/66/1 383/63/1 384/62/1
f 385/67/1 386/68/1 387/57/1 388/56/1
f 389/56/1 390/57/1 391/54/1 392/53/1
f 393/65/1 394/66/1 395/63/1 396/62/1
f 397/56/1 398/57/1 399/54/1 400/53/1
f 401/67/1 402/68/1 403/57/1 404/56/1
f 405/65/1 406/66/1 407/63/1 408/62/1
f 409/67/1 410/68/1 411/57/1 412/56/1

